<svg xmlns="http://www.w3.org/2000/svg" viewBox="0 0 512 512" width="100%" height="100%">
  <defs>
    <linearGradient id="metal" x1="0%" y1="0%" x2="100%" y2="100%">
      <stop offset="0%" stop-color="#f1f5f9" />
      <stop offset="50%" stop-color="#94a3b8" />
      <stop offset="100%" stop-color="#475569" />
    </linearGradient>

    <radialGradient id="greenGlow" cx="50%" cy="50%" r="50%">
      <stop offset="0%" stop-color="#4ade80" stop-opacity="1" />
      <stop offset="50%" stop-color="#22c55e" stop-opacity="0.8" />
      <stop offset="100%" stop-color="#14532d" stop-opacity="0" />
    </radialGradient>
  </defs>

  <rect width="512" height="512" rx="110" fill="#0f172a" />

  <polygon points="256,66 420,161 420,351 256,446 92,351 92,161" fill="url(#metal)" stroke="#334155" stroke-width="6"/>

  <circle cx="256" cy="256" r="130" fill="#020617" stroke="#1e293b" stroke-width="8"/>

  <circle cx="256" cy="246" r="110" fill="url(#greenGlow)" />

  <line x1="256" y1="170" x2="256" y2="140" stroke="#4ade80" stroke-width="12" stroke-linecap="round"/>
  <line x1="196" y1="190" x2="174" y2="168" stroke="#4ade80" stroke-width="12" stroke-linecap="round"/>
  <line x1="316" y1="190" x2="338" y2="168" stroke="#4ade80" stroke-width="12" stroke-linecap="round"/>

  <rect x="226" y="296" width="16" height="50" rx="4" fill="#94a3b8" />
  <rect x="270" y="296" width="16" height="50" rx="4" fill="#94a3b8" />

  <rect x="206" y="286" width="100" height="16" rx="6" fill="#16a34a" />

  <path d="M 216 286 L 216 236 A 40 40 0 0 1 296 236 L 296 286 Z" fill="#4ade80" />

  <ellipse cx="238" cy="230" rx="10" ry="22" fill="#ffffff" fill-opacity="0.6" transform="rotate(-25 238 230)"/>
</svg>
